<svg xmlns="http://www.w3.org/2000/svg" xmlns:xlink="http://www.w3.org/1999/xlink" width="140" height="204" viewBox="0 0 140 204">
  <defs>
    <clipPath id="clip-path">
      <rect width="140" height="204" fill="none"/>
    </clipPath>
  </defs>
  <g id="Repeat_Grid_4" data-name="Repeat Grid 4" opacity="0.64" clip-path="url(#clip-path)">
    <g transform="translate(-376 -928)">
      <circle id="Ellipse_13" data-name="Ellipse 13" cx="6" cy="6" r="6" transform="translate(376 928)" fill="#fff"/>
    </g>
    <g transform="translate(-344 -928)">
      <circle id="Ellipse_13-2" data-name="Ellipse 13" cx="6" cy="6" r="6" transform="translate(376 928)" fill="#fff"/>
    </g>
    <g transform="translate(-312 -928)">
      <circle id="Ellipse_13-3" data-name="Ellipse 13" cx="6" cy="6" r="6" transform="translate(376 928)" fill="#fff"/>
    </g>
    <g transform="translate(-280 -928)">
      <circle id="Ellipse_13-4" data-name="Ellipse 13" cx="6" cy="6" r="6" transform="translate(376 928)" fill="#fff"/>
    </g>
    <g transform="translate(-248 -928)">
      <circle id="Ellipse_13-5" data-name="Ellipse 13" cx="6" cy="6" r="6" transform="translate(376 928)" fill="#fff"/>
    </g>
    <g transform="translate(-376 -896)">
      <circle id="Ellipse_13-6" data-name="Ellipse 13" cx="6" cy="6" r="6" transform="translate(376 928)" fill="#fff"/>
    </g>
    <g transform="translate(-344 -896)">
      <circle id="Ellipse_13-7" data-name="Ellipse 13" cx="6" cy="6" r="6" transform="translate(376 928)" fill="#fff"/>
    </g>
    <g transform="translate(-312 -896)">
      <circle id="Ellipse_13-8" data-name="Ellipse 13" cx="6" cy="6" r="6" transform="translate(376 928)" fill="#fff"/>
    </g>
    <g transform="translate(-280 -896)">
      <circle id="Ellipse_13-9" data-name="Ellipse 13" cx="6" cy="6" r="6" transform="translate(376 928)" fill="#fff"/>
    </g>
    <g transform="translate(-248 -896)">
      <circle id="Ellipse_13-10" data-name="Ellipse 13" cx="6" cy="6" r="6" transform="translate(376 928)" fill="#fff"/>
    </g>
    <g transform="translate(-376 -864)">
      <circle id="Ellipse_13-11" data-name="Ellipse 13" cx="6" cy="6" r="6" transform="translate(376 928)" fill="#fff"/>
    </g>
    <g transform="translate(-344 -864)">
      <circle id="Ellipse_13-12" data-name="Ellipse 13" cx="6" cy="6" r="6" transform="translate(376 928)" fill="#fff"/>
    </g>
    <g transform="translate(-312 -864)">
      <circle id="Ellipse_13-13" data-name="Ellipse 13" cx="6" cy="6" r="6" transform="translate(376 928)" fill="#fff"/>
    </g>
    <g transform="translate(-280 -864)">
      <circle id="Ellipse_13-14" data-name="Ellipse 13" cx="6" cy="6" r="6" transform="translate(376 928)" fill="#fff"/>
    </g>
    <g transform="translate(-248 -864)">
      <circle id="Ellipse_13-15" data-name="Ellipse 13" cx="6" cy="6" r="6" transform="translate(376 928)" fill="#fff"/>
    </g>
    <g transform="translate(-376 -832)">
      <circle id="Ellipse_13-16" data-name="Ellipse 13" cx="6" cy="6" r="6" transform="translate(376 928)" fill="#fff"/>
    </g>
    <g transform="translate(-344 -832)">
      <circle id="Ellipse_13-17" data-name="Ellipse 13" cx="6" cy="6" r="6" transform="translate(376 928)" fill="#fff"/>
    </g>
    <g transform="translate(-312 -832)">
      <circle id="Ellipse_13-18" data-name="Ellipse 13" cx="6" cy="6" r="6" transform="translate(376 928)" fill="#fff"/>
    </g>
    <g transform="translate(-280 -832)">
      <circle id="Ellipse_13-19" data-name="Ellipse 13" cx="6" cy="6" r="6" transform="translate(376 928)" fill="#fff"/>
    </g>
    <g transform="translate(-248 -832)">
      <circle id="Ellipse_13-20" data-name="Ellipse 13" cx="6" cy="6" r="6" transform="translate(376 928)" fill="#fff"/>
    </g>
    <g transform="translate(-376 -800)">
      <circle id="Ellipse_13-21" data-name="Ellipse 13" cx="6" cy="6" r="6" transform="translate(376 928)" fill="#fff"/>
    </g>
    <g transform="translate(-344 -800)">
      <circle id="Ellipse_13-22" data-name="Ellipse 13" cx="6" cy="6" r="6" transform="translate(376 928)" fill="#fff"/>
    </g>
    <g transform="translate(-312 -800)">
      <circle id="Ellipse_13-23" data-name="Ellipse 13" cx="6" cy="6" r="6" transform="translate(376 928)" fill="#fff"/>
    </g>
    <g transform="translate(-280 -800)">
      <circle id="Ellipse_13-24" data-name="Ellipse 13" cx="6" cy="6" r="6" transform="translate(376 928)" fill="#fff"/>
    </g>
    <g transform="translate(-248 -800)">
      <circle id="Ellipse_13-25" data-name="Ellipse 13" cx="6" cy="6" r="6" transform="translate(376 928)" fill="#fff"/>
    </g>
    <g transform="translate(-376 -768)">
      <circle id="Ellipse_13-26" data-name="Ellipse 13" cx="6" cy="6" r="6" transform="translate(376 928)" fill="#fff"/>
    </g>
    <g transform="translate(-344 -768)">
      <circle id="Ellipse_13-27" data-name="Ellipse 13" cx="6" cy="6" r="6" transform="translate(376 928)" fill="#fff"/>
    </g>
    <g transform="translate(-312 -768)">
      <circle id="Ellipse_13-28" data-name="Ellipse 13" cx="6" cy="6" r="6" transform="translate(376 928)" fill="#fff"/>
    </g>
    <g transform="translate(-280 -768)">
      <circle id="Ellipse_13-29" data-name="Ellipse 13" cx="6" cy="6" r="6" transform="translate(376 928)" fill="#fff"/>
    </g>
    <g transform="translate(-248 -768)">
      <circle id="Ellipse_13-30" data-name="Ellipse 13" cx="6" cy="6" r="6" transform="translate(376 928)" fill="#fff"/>
    </g>
    <g transform="translate(-376 -736)">
      <circle id="Ellipse_13-31" data-name="Ellipse 13" cx="6" cy="6" r="6" transform="translate(376 928)" fill="#fff"/>
    </g>
    <g transform="translate(-344 -736)">
      <circle id="Ellipse_13-32" data-name="Ellipse 13" cx="6" cy="6" r="6" transform="translate(376 928)" fill="#fff"/>
    </g>
    <g transform="translate(-312 -736)">
      <circle id="Ellipse_13-33" data-name="Ellipse 13" cx="6" cy="6" r="6" transform="translate(376 928)" fill="#fff"/>
    </g>
    <g transform="translate(-280 -736)">
      <circle id="Ellipse_13-34" data-name="Ellipse 13" cx="6" cy="6" r="6" transform="translate(376 928)" fill="#fff"/>
    </g>
    <g transform="translate(-248 -736)">
      <circle id="Ellipse_13-35" data-name="Ellipse 13" cx="6" cy="6" r="6" transform="translate(376 928)" fill="#fff"/>
    </g>
  </g>
</svg>
